<svg width="24" height="24" viewBox="0 0 24 24" fill="none" xmlns="http://www.w3.org/2000/svg">
<mask id="mask0_59581_369" style="mask-type:alpha" maskUnits="userSpaceOnUse" x="0" y="0" width="24" height="24">
<rect y="6.10352e-05" width="24" height="24" fill="#D9D9D9"/>
</mask>
<g mask="url(#mask0_59581_369)">
<path d="M15 20.0001C12.7667 20.0001 10.875 19.2251 9.325 17.6751C7.775 16.1251 7 14.2334 7 12.0001C7 9.78339 7.775 7.89589 9.325 6.33756C10.875 4.77923 12.7667 4.00006 15 4.00006C17.2167 4.00006 19.1042 4.77923 20.6625 6.33756C22.2208 7.89589 23 9.78339 23 12.0001C23 14.2334 22.2208 16.1251 20.6625 17.6751C19.1042 19.2251 17.2167 20.0001 15 20.0001ZM15 18.0001C16.6667 18.0001 18.0833 17.4167 19.25 16.2501C20.4167 15.0834 21 13.6667 21 12.0001C21 10.3334 20.4167 8.91673 19.25 7.75006C18.0833 6.58339 16.6667 6.00006 15 6.00006C13.3333 6.00006 11.9167 6.58339 10.75 7.75006C9.58333 8.91673 9 10.3334 9 12.0001C9 13.6667 9.58333 15.0834 10.75 16.2501C11.9167 17.4167 13.3333 18.0001 15 18.0001ZM16 11.6001V9.00006C16 8.71673 15.9042 8.47923 15.7125 8.28756C15.5208 8.09589 15.2833 8.00006 15 8.00006C14.7167 8.00006 14.4792 8.09589 14.2875 8.28756C14.0958 8.47923 14 8.71673 14 9.00006V12.0251C14 12.1584 14.0292 12.2876 14.0875 12.4126C14.1458 12.5376 14.2167 12.6417 14.3 12.7251L16.575 15.0001C16.775 15.2001 17.0125 15.3001 17.2875 15.3001C17.5625 15.3001 17.8 15.2001 18 15.0001C18.2 14.8001 18.3 14.5626 18.3 14.2876C18.3 14.0126 18.2 13.7751 18 13.5751L16 11.6001ZM3 9.00006C2.71667 9.00006 2.47917 8.90423 2.2875 8.71256C2.09583 8.52089 2 8.28339 2 8.00006C2 7.71673 2.09583 7.47923 2.2875 7.28756C2.47917 7.09589 2.71667 7.00006 3 7.00006H5C5.28333 7.00006 5.52083 7.09589 5.7125 7.28756C5.90417 7.47923 6 7.71673 6 8.00006C6 8.28339 5.90417 8.52089 5.7125 8.71256C5.52083 8.90423 5.28333 9.00006 5 9.00006H3ZM2 13.0001C1.71667 13.0001 1.47917 12.9042 1.2875 12.7126C1.09583 12.5209 1 12.2834 1 12.0001C1 11.7167 1.09583 11.4792 1.2875 11.2876C1.47917 11.0959 1.71667 11.0001 2 11.0001H5C5.28333 11.0001 5.52083 11.0959 5.7125 11.2876C5.90417 11.4792 6 11.7167 6 12.0001C6 12.2834 5.90417 12.5209 5.7125 12.7126C5.52083 12.9042 5.28333 13.0001 5 13.0001H2ZM3 17.0001C2.71667 17.0001 2.47917 16.9042 2.2875 16.7126C2.09583 16.5209 2 16.2834 2 16.0001C2 15.7167 2.09583 15.4792 2.2875 15.2876C2.47917 15.0959 2.71667 15.0001 3 15.0001H5C5.28333 15.0001 5.52083 15.0959 5.7125 15.2876C5.90417 15.4792 6 15.7167 6 16.0001C6 16.2834 5.90417 16.5209 5.7125 16.7126C5.52083 16.9042 5.28333 17.0001 5 17.0001H3Z" fill="#090F1F"/>
</g>
</svg>
