<svg width="24" height="24" viewBox="0 0 24 24" fill="none" xmlns="http://www.w3.org/2000/svg">
<mask id="mask0_55392_122" style="mask-type:alpha" maskUnits="userSpaceOnUse" x="0" y="0" width="24" height="24">
<rect y="3.05176e-05" width="24" height="24" fill="#D9D9D9"/>
</mask>
<g mask="url(#mask0_55392_122)">
<path d="M10.6 13.4L8.45 11.25C8.26667 11.0667 8.03333 10.975 7.75 10.975C7.46667 10.975 7.23333 11.0667 7.05 11.25C6.86667 11.4334 6.775 11.6667 6.775 11.95C6.775 12.2334 6.86667 12.4667 7.05 12.65L9.9 15.5C10.1 15.7 10.3333 15.8 10.6 15.8C10.8667 15.8 11.1 15.7 11.3 15.5L16.95 9.85003C17.1333 9.6667 17.225 9.43336 17.225 9.15003C17.225 8.8667 17.1333 8.63336 16.95 8.45003C16.7667 8.2667 16.5333 8.17503 16.25 8.17503C15.9667 8.17503 15.7333 8.2667 15.55 8.45003L10.6 13.4ZM5 21C4.45 21 3.97917 20.8042 3.5875 20.4125C3.19583 20.0209 3 19.55 3 19V5.00003C3 4.45003 3.19583 3.9792 3.5875 3.58753C3.97917 3.19586 4.45 3.00003 5 3.00003H19C19.55 3.00003 20.0208 3.19586 20.4125 3.58753C20.8042 3.9792 21 4.45003 21 5.00003V19C21 19.55 20.8042 20.0209 20.4125 20.4125C20.0208 20.8042 19.55 21 19 21H5Z" fill="#3B4CF2"/>
</g>
</svg>
