<svg width="18" height="18" viewBox="0 0 18 18" fill="none" xmlns="http://www.w3.org/2000/svg">
<path d="M7.6 10.4L5.45 8.25003C5.26667 8.0667 5.03333 7.97503 4.75 7.97503C4.46667 7.97503 4.23333 8.0667 4.05 8.25003C3.86667 8.43336 3.775 8.6667 3.775 8.95003C3.775 9.23336 3.86667 9.4667 4.05 9.65003L6.9 12.5C7.1 12.7 7.33333 12.8 7.6 12.8C7.86667 12.8 8.1 12.7 8.3 12.5L13.95 6.85003C14.1333 6.6667 14.225 6.43336 14.225 6.15003C14.225 5.8667 14.1333 5.63336 13.95 5.45003C13.7667 5.2667 13.5333 5.17503 13.25 5.17503C12.9667 5.17503 12.7333 5.2667 12.55 5.45003L7.6 10.4ZM2 18C1.45 18 0.979167 17.8042 0.5875 17.4125C0.195833 17.0209 0 16.55 0 16V2.00003C0 1.45003 0.195833 0.979197 0.5875 0.587531C0.979167 0.195864 1.45 3.05176e-05 2 3.05176e-05H16C16.55 3.05176e-05 17.0208 0.195864 17.4125 0.587531C17.8042 0.979197 18 1.45003 18 2.00003V16C18 16.55 17.8042 17.0209 17.4125 17.4125C17.0208 17.8042 16.55 18 16 18H2Z" fill="#3B4CF2"/>
</svg>
