<svg width="7" height="13" viewBox="0 0 7 13" fill="none" xmlns="http://www.w3.org/2000/svg">
<path d="M2.80078 6.5L6.70078 10.4C6.88411 10.5833 6.97578 10.8167 6.97578 11.1C6.97578 11.3833 6.88411 11.6167 6.70078 11.8C6.51745 11.9833 6.28411 12.075 6.00078 12.075C5.71745 12.075 5.48411 11.9833 5.30078 11.8L0.700781 7.2C0.600781 7.1 0.529948 6.99167 0.488281 6.875C0.446615 6.75834 0.425781 6.63334 0.425781 6.5C0.425781 6.36667 0.446615 6.24167 0.488281 6.125C0.529948 6.00834 0.600781 5.9 0.700781 5.8L5.30078 1.2C5.48411 1.01667 5.71745 0.925003 6.00078 0.925003C6.28411 0.925003 6.51745 1.01667 6.70078 1.2C6.88411 1.38334 6.97578 1.61667 6.97578 1.9C6.97578 2.18334 6.88411 2.41667 6.70078 2.6L2.80078 6.5Z" fill="#090F1F"/>
</svg>
