<svg width="20" height="20" viewBox="0 0 20 20" fill="none" xmlns="http://www.w3.org/2000/svg">
<path d="M10 20.0001C8.61667 20.0001 7.31667 19.7376 6.1 19.2126C4.88333 18.6876 3.825 17.9751 2.925 17.0751C2.025 16.1751 1.3125 15.1167 0.7875 13.9001C0.2625 12.6834 0 11.3834 0 10.0001C0 8.61673 0.2625 7.31673 0.7875 6.10006C1.3125 4.88339 2.025 3.82506 2.925 2.92506C3.825 2.02506 4.88333 1.31256 6.1 0.787561C7.31667 0.262561 8.61667 6.10352e-05 10 6.10352e-05C11.3833 6.10352e-05 12.6833 0.262561 13.9 0.787561C15.1167 1.31256 16.175 2.02506 17.075 2.92506C17.975 3.82506 18.6875 4.88339 19.2125 6.10006C19.7375 7.31673 20 8.61673 20 10.0001C20 11.3834 19.7375 12.6834 19.2125 13.9001C18.6875 15.1167 17.975 16.1751 17.075 17.0751C16.175 17.9751 15.1167 18.6876 13.9 19.2126C12.6833 19.7376 11.3833 20.0001 10 20.0001ZM10 18.0001C12.2333 18.0001 14.125 17.2251 15.675 15.6751C17.225 14.1251 18 12.2334 18 10.0001C18 9.88339 17.9958 9.76256 17.9875 9.63756C17.9792 9.51256 17.975 9.40839 17.975 9.32506C17.8917 9.80839 17.6667 10.2084 17.3 10.5251C16.9333 10.8417 16.5 11.0001 16 11.0001H14C13.45 11.0001 12.9792 10.8042 12.5875 10.4126C12.1958 10.0209 12 9.55006 12 9.00006V8.00006H8V6.00006C8 5.45006 8.19583 4.97923 8.5875 4.58756C8.97917 4.19589 9.45 4.00006 10 4.00006H11C11 3.61673 11.1042 3.27923 11.3125 2.98756C11.5208 2.69589 11.775 2.45839 12.075 2.27506C11.7417 2.19173 11.4042 2.12506 11.0625 2.07506C10.7208 2.02506 10.3667 2.00006 10 2.00006C7.76667 2.00006 5.875 2.77506 4.325 4.32506C2.775 5.87506 2 7.76673 2 10.0001H7C8.1 10.0001 9.04167 10.3917 9.825 11.1751C10.6083 11.9584 11 12.9001 11 14.0001V15.0001H8V17.7501C8.33333 17.8334 8.6625 17.8959 8.9875 17.9376C9.3125 17.9792 9.65 18.0001 10 18.0001Z" fill="#1C1B1F"/>
</svg>
