<svg width="16" height="16" viewBox="0 0 16 16" fill="none" xmlns="http://www.w3.org/2000/svg">
<path d="M7.99998 4.66667V3.33333C7.99998 2.6 7.39998 2 6.66665 2H2.66665C1.93331 2 1.33331 2.6 1.33331 3.33333V12.6667C1.33331 13.4 1.93331 14 2.66665 14H13.3333C14.0666 14 14.6666 13.4 14.6666 12.6667V6C14.6666 5.26667 14.0666 4.66667 13.3333 4.66667H7.99998ZM6.66665 12.6667H2.66665V11.3333H6.66665V12.6667ZM6.66665 10H2.66665V8.66667H6.66665V10ZM6.66665 7.33333H2.66665V6H6.66665V7.33333ZM6.66665 4.66667H2.66665V3.33333H6.66665V4.66667ZM13.3333 12.6667H7.99998V6H13.3333V12.6667ZM12 7.33333H9.33331V8.66667H12V7.33333ZM12 10H9.33331V11.3333H12V10Z" fill="#0062E2"/>
</svg>
