<svg width="24" height="24" viewBox="0 0 24 24" fill="none" xmlns="http://www.w3.org/2000/svg">
<mask id="mask0_59143_262" style="mask-type:alpha" maskUnits="userSpaceOnUse" x="0" y="0" width="24" height="25">
<rect y="0.00012207" width="24" height="24" fill="#D9D9D9"/>
</mask>
<g mask="url(#mask0_59143_262)">
<path d="M16 5.00012V12.0001L17.7 13.7001C17.8 13.8001 17.875 13.9126 17.925 14.0376C17.975 14.1626 18 14.2918 18 14.4251V15.0001C18 15.2835 17.9042 15.521 17.7125 15.7126C17.5208 15.9043 17.2833 16.0001 17 16.0001H13V21.8501C13 22.1335 12.9042 22.371 12.7125 22.5626C12.5208 22.7543 12.2833 22.8501 12 22.8501C11.7167 22.8501 11.4792 22.7543 11.2875 22.5626C11.0958 22.371 11 22.1335 11 21.8501V16.0001H7C6.71667 16.0001 6.47917 15.9043 6.2875 15.7126C6.09583 15.521 6 15.2835 6 15.0001V14.4251C6 14.2918 6.025 14.1626 6.075 14.0376C6.125 13.9126 6.2 13.8001 6.3 13.7001L8 12.0001V5.00012C7.71667 5.00012 7.47917 4.90429 7.2875 4.71262C7.09583 4.52096 7 4.28346 7 4.00012C7 3.71679 7.09583 3.47929 7.2875 3.28762C7.47917 3.09596 7.71667 3.00012 8 3.00012H16C16.2833 3.00012 16.5208 3.09596 16.7125 3.28762C16.9042 3.47929 17 3.71679 17 4.00012C17 4.28346 16.9042 4.52096 16.7125 4.71262C16.5208 4.90429 16.2833 5.00012 16 5.00012ZM8.85 14.0001H15.15L14 12.8501V5.00012H10V12.8501L8.85 14.0001Z" fill="#090F1F"/>
</g>
</svg>
