<svg width="71" height="74" viewBox="0 0 71 74" fill="none" xmlns="http://www.w3.org/2000/svg">
<mask id="path-1-inside-1_59068_127" fill="white">
<path d="M0 32.0001C0 14.3269 14.3269 6.10352e-05 32 6.10352e-05H39C56.6731 6.10352e-05 71 14.327 71 32.0001V42.0001H0V32.0001Z"/>
</mask>
<path d="M0 32.0001C0 14.3269 14.3269 6.10352e-05 32 6.10352e-05H39C56.6731 6.10352e-05 71 14.327 71 32.0001V42.0001H0V32.0001Z" fill="#3A813F" fill-opacity="0.05"/>
<path d="M-1 32.0001C-1 13.7747 13.7746 -0.999939 32 -0.999939H39C57.2254 -0.999939 72 13.7747 72 32.0001H70C70 14.8792 56.1208 1.00006 39 1.00006H32C14.8792 1.00006 1 14.8792 1 32.0001H-1ZM71 42.0001H0H71ZM-1 42.0001V32.0001C-1 13.7747 13.7746 -0.999939 32 -0.999939V1.00006C14.8792 1.00006 1 14.8792 1 32.0001V42.0001H-1ZM39 -0.999939C57.2254 -0.999939 72 13.7747 72 32.0001V42.0001H70V32.0001C70 14.8792 56.1208 1.00006 39 1.00006V-0.999939Z" fill="#3A813F" mask="url(#path-1-inside-1_59068_127)"/>
<path d="M36.2497 19.6081H33.0017V18.1381H38.2377V19.5381L35.0177 27.0001H33.0857L36.2497 19.6081Z" fill="#3A813F"/>
<path d="M9.47547 55.0001L9.85947 54.2561H12.1155C12.4835 54.2561 12.7395 54.1641 12.8835 53.9801C13.0355 53.7961 13.1115 53.4761 13.1115 53.0201C13.1115 51.8521 12.5995 50.9761 11.5755 50.3921L11.9595 49.7321C13.2635 50.4921 13.9155 51.5921 13.9155 53.0321C13.9155 54.3441 13.3595 55.0001 12.2475 55.0001H9.47547ZM14.8661 55.0001L15.2501 54.2561H17.5061C17.8741 54.2561 18.1301 54.1641 18.2741 53.9801C18.4261 53.7961 18.5021 53.4761 18.5021 53.0201C18.5021 51.8441 17.9861 50.9681 16.9541 50.3921L17.3501 49.7321C18.6221 50.4681 19.2701 51.5041 19.2941 52.8401C19.3021 53.7841 19.7621 54.2561 20.6741 54.2561H21.0461V55.0001H20.5901C19.8941 55.0001 19.3621 54.7681 18.9941 54.3041C18.7221 54.7681 18.2701 55.0001 17.6381 55.0001H14.8661ZM26.9459 54.2561V55.0001H20.8019V54.2561H22.8179C22.3139 53.7441 22.0619 53.0641 22.0619 52.2161C22.0619 51.4081 22.3379 50.7681 22.8899 50.2961C23.3299 49.9201 23.8459 49.7281 24.4379 49.7201C25.2619 49.7201 25.9059 50.0441 26.3699 50.6921V51.4841C25.8899 50.7961 25.2739 50.4521 24.5219 50.4521H24.4859C24.0059 50.4521 23.6139 50.6161 23.3099 50.9441C23.0139 51.2721 22.8659 51.7041 22.8659 52.2401C22.8659 52.8561 23.0499 53.3481 23.4179 53.7161C23.7699 54.0761 24.2419 54.2561 24.8339 54.2561H26.9459ZM38.7178 48.3161C38.3898 48.3161 38.2258 48.1481 38.2258 47.8121C38.2258 47.4921 38.3898 47.3321 38.7178 47.3321C39.0298 47.3321 39.1858 47.4921 39.1858 47.8121C39.1858 48.1481 39.0298 48.3161 38.7178 48.3161ZM39.9058 54.2561H42.0058V55.0001H39.3898C39.1178 55.0001 38.8698 54.9721 38.6458 54.9161C38.4218 54.9721 38.1738 55.0001 37.9018 55.0001H33.4498C32.8578 55.0001 32.3858 54.8161 32.0338 54.4481C31.6818 54.0721 31.5058 53.5681 31.5058 52.9361V51.3641L32.3098 50.9441V52.8401C32.3098 53.7841 32.7498 54.2561 33.6298 54.2561H37.3858C36.7618 53.6801 36.4498 52.9881 36.4498 52.1801C36.4498 51.4041 36.6658 50.7881 37.0978 50.3321C37.4898 49.9241 38.0058 49.7201 38.6458 49.7201C39.3738 49.7201 39.9378 49.9841 40.3378 50.5121C40.6738 50.9521 40.8418 51.5081 40.8418 52.1801C40.8418 52.9881 40.5298 53.6801 39.9058 54.2561ZM38.6938 54.1481C39.1018 54.0041 39.4338 53.7481 39.6898 53.3801C39.9458 53.0121 40.0738 52.6081 40.0738 52.1681C40.0738 51.6401 39.9458 51.2241 39.6898 50.9201C39.4338 50.6081 39.0858 50.4521 38.6458 50.4521C38.2058 50.4521 37.8538 50.6081 37.5898 50.9201C37.3338 51.2241 37.2058 51.6361 37.2058 52.1561C37.2058 52.5961 37.3338 53.0041 37.5898 53.3801C37.8538 53.7481 38.1898 54.0041 38.5978 54.1481L38.6458 54.1601L38.6698 54.1481H38.6938ZM50.3347 55.0001H47.3707C46.9387 55.0001 46.4987 54.9081 46.0507 54.7241C45.5947 54.9081 45.1507 55.0001 44.7187 55.0001H41.7667V54.2561H44.6707C44.8307 54.2561 44.9947 54.2441 45.1627 54.2201C44.5307 53.7641 43.8427 53.0121 43.0987 51.9641V51.4721C43.9307 50.3041 44.9107 49.7201 46.0387 49.7201C47.1587 49.7201 48.1427 50.3121 48.9907 51.4961V51.9641C48.2467 53.0121 47.5627 53.7641 46.9387 54.2201C47.0987 54.2441 47.2587 54.2561 47.4187 54.2561H50.3227L50.3347 55.0001ZM43.7947 51.7241C44.6347 52.8441 45.3827 53.5721 46.0387 53.9081C46.6867 53.5721 47.4387 52.8401 48.2947 51.7121C47.6547 50.8721 46.9027 50.4521 46.0387 50.4521H46.0027C45.1867 50.4521 44.4507 50.8761 43.7947 51.7241ZM58.1508 48.2801C57.8228 48.2801 57.6588 48.1121 57.6588 47.7761C57.6588 47.4561 57.8228 47.2961 58.1508 47.2961C58.4628 47.2961 58.6188 47.4561 58.6188 47.7761C58.6188 48.1121 58.4628 48.2801 58.1508 48.2801ZM53.5188 54.2081C53.8148 52.9761 54.3308 51.9441 55.0668 51.1121C55.8908 50.1841 56.8588 49.7201 57.9708 49.7201C58.8668 49.7201 59.5788 50.0281 60.1068 50.6441C60.5548 51.1721 60.7788 51.8241 60.7788 52.6001V52.9361C60.7788 53.6161 60.5708 54.1441 60.1548 54.5201C59.8028 54.8401 59.3348 55.0001 58.7508 55.0001H53.8668C53.1468 55.0001 52.6068 54.7561 52.2468 54.2681C51.8708 54.7561 51.3268 55.0001 50.6147 55.0001H50.0987V54.2561H50.5188C51.3988 54.2561 51.8388 53.8001 51.8388 52.8881V51.1601L52.6428 50.7401V52.8881C52.6428 53.6401 52.9348 54.0801 53.5188 54.2081ZM59.9748 52.8401V52.6001C59.9748 51.9281 59.7628 51.3881 59.3388 50.9801C58.9788 50.6281 58.5268 50.4521 57.9828 50.4521C57.0468 50.4521 56.2148 50.8921 55.4868 51.7721C54.9348 52.4441 54.5188 53.2721 54.2388 54.2561H58.6908C59.5468 54.2561 59.9748 53.7841 59.9748 52.8401ZM11.2366 63.4201C10.9166 63.4201 10.7566 63.2521 10.7566 62.9161C10.7566 62.5961 10.9166 62.4361 11.2366 62.4361C11.5566 62.4361 11.7166 62.5961 11.7166 62.9161C11.7166 63.2521 11.5566 63.4201 11.2366 63.4201ZM12.6166 63.4201C12.2886 63.4201 12.1246 63.2521 12.1246 62.9161C12.1246 62.5961 12.2886 62.4361 12.6166 62.4361C12.9286 62.4361 13.0846 62.5961 13.0846 62.9161C13.0846 63.2521 12.9286 63.4201 12.6166 63.4201ZM10.0006 69.0001C9.40856 69.0001 8.93656 68.8161 8.58456 68.4481C8.23256 68.0721 8.05656 67.5681 8.05656 66.9361V65.3641L8.86056 64.9441V66.8401C8.86056 67.7841 9.30056 68.2561 10.1806 68.2561H14.2006C15.0806 68.2561 15.5206 67.7841 15.5206 66.8401V64.2841L16.3246 63.8641V66.9361C16.3246 67.6161 16.1166 68.1441 15.7006 68.5201C15.3406 68.8401 14.8686 69.0001 14.2846 69.0001H10.0006ZM18.4863 69.0001V61.6801L19.2903 61.2601V69.0001H18.4863ZM20.4911 69.0001L20.8751 68.2561H23.1311C23.4991 68.2561 23.7551 68.1641 23.8991 67.9801C24.0511 67.7961 24.1271 67.4761 24.1271 67.0201C24.1271 65.8441 23.6111 64.9681 22.5791 64.3921L22.9751 63.7321C24.2471 64.4681 24.8951 65.5041 24.9191 66.8401C24.9271 67.7841 25.3871 68.2561 26.2991 68.2561H26.6711V69.0001H26.2151C25.5191 69.0001 24.9871 68.7681 24.6191 68.3041C24.3471 68.7681 23.8951 69.0001 23.2631 69.0001H20.4911ZM27.6389 65.4841C27.8069 64.8201 28.1229 64.2961 28.5869 63.9121C29.0589 63.5201 29.6109 63.3241 30.2429 63.3241C31.0509 63.3241 31.7229 63.6081 32.2589 64.1761C32.7629 64.7201 33.0149 65.4121 33.0149 66.2521V66.9361C33.0149 67.6161 32.8069 68.1441 32.3909 68.5201C32.0389 68.8401 31.5709 69.0001 30.9869 69.0001H29.7989C29.5189 69.0001 29.2589 68.9601 29.0189 68.8801C28.7789 68.9601 28.5269 69.0001 28.2629 69.0001H26.4269V68.2561H27.9629C27.5309 67.8241 27.3149 67.2921 27.3149 66.6601C27.3149 66.1961 27.4229 65.8041 27.6389 65.4841ZM32.2229 66.8401V66.2521C32.2229 65.5321 31.9909 64.9641 31.5269 64.5481C31.1509 64.2201 30.7109 64.0561 30.2069 64.0561C29.5349 64.0561 29.0229 64.3161 28.6709 64.8361C28.7909 64.8121 28.9109 64.8001 29.0309 64.8001C29.5429 64.8001 29.9549 64.9721 30.2669 65.3161C30.5789 65.6521 30.7349 66.1001 30.7349 66.6601C30.7349 67.2921 30.5189 67.8241 30.0869 68.2561H30.9269C31.7909 68.2561 32.2229 67.7841 32.2229 66.8401ZM29.0309 68.1481C29.7589 67.9081 30.1229 67.4041 30.1229 66.6361C30.1229 66.2601 30.0229 65.9601 29.8229 65.7361C29.6309 65.5041 29.3669 65.3881 29.0309 65.3881C28.6949 65.3881 28.4269 65.5001 28.2269 65.7241C28.0269 65.9481 27.9269 66.2521 27.9269 66.6361C27.9269 67.4041 28.2949 67.9081 29.0309 68.1481ZM37.0025 69.0001C36.3225 69.0001 35.7985 68.7801 35.4305 68.3401C35.1265 67.9641 34.9745 67.4881 34.9745 66.9121V61.6801L35.7785 61.2601V66.8881C35.7785 67.8001 36.2185 68.2561 37.0985 68.2561H37.5185V69.0001H37.0025ZM43.6264 61.4281C43.3384 61.4281 43.1944 61.2761 43.1944 60.9721C43.1944 60.6841 43.3384 60.5401 43.6264 60.5401C43.9144 60.5401 44.0584 60.6841 44.0584 60.9721C44.0584 61.2761 43.9144 61.4281 43.6264 61.4281ZM42.9544 62.6761C42.6264 62.6761 42.4624 62.5121 42.4624 62.1841C42.4624 61.8561 42.6264 61.6921 42.9544 61.6921C43.2664 61.6921 43.4224 61.8561 43.4224 62.1841C43.4224 62.5121 43.2664 62.6761 42.9544 62.6761ZM44.3224 62.6761C44.0024 62.6761 43.8424 62.5121 43.8424 62.1841C43.8424 61.8561 44.0024 61.6921 44.3224 61.6921C44.6424 61.6921 44.8024 61.8561 44.8024 62.1841C44.8024 62.5121 44.6424 62.6761 44.3224 62.6761ZM37.2784 69.0001V68.2561H38.0104C38.8984 68.2561 39.3424 67.8001 39.3424 66.8881V65.1601L40.1464 64.7401V66.8881C40.1464 67.8001 40.5864 68.2561 41.4664 68.2561H41.9104C42.7904 68.2561 43.2304 67.8001 43.2304 66.8881V64.7281L44.0344 64.2961V66.8881C44.0344 67.8001 44.4784 68.2561 45.3664 68.2561H45.7984C46.6864 68.2561 47.1304 67.8001 47.1304 66.8881V64.2841L47.9344 63.8641V66.8401C47.9344 67.7841 48.3904 68.2561 49.3024 68.2561H49.9984V69.0001H49.2184C48.4584 69.0001 47.9024 68.7321 47.5504 68.1961C47.1984 68.7321 46.6544 69.0001 45.9184 69.0001H45.2584C44.5144 69.0001 43.9744 68.7361 43.6384 68.2081C43.2944 68.7361 42.7584 69.0001 42.0304 69.0001H41.3704C40.6264 69.0001 40.0824 68.7361 39.7384 68.2081C39.4024 68.7361 38.8624 69.0001 38.1184 69.0001H37.2784ZM57.3069 68.2561H57.7149V69.0001H57.1989C56.4709 69.0001 55.9269 68.7481 55.5669 68.2441C55.1669 68.9081 54.5589 69.2401 53.7429 69.2401C52.9189 69.2401 52.3109 68.9121 51.9189 68.2561C51.5509 68.7521 51.0029 69.0001 50.2749 69.0001H49.7589V68.2561H50.1789C51.0589 68.2561 51.4989 67.8001 51.4989 66.8881V66.4801C51.4989 65.5601 51.7229 64.8561 52.1709 64.3681C52.5629 63.9361 53.0869 63.7201 53.7429 63.7201C54.4949 63.7201 55.0669 64.0001 55.4589 64.5601C55.8029 65.0401 55.9749 65.6801 55.9749 66.4801V66.8881C55.9749 67.8001 56.4189 68.2561 57.3069 68.2561ZM53.7429 68.4961C54.1829 68.4961 54.5309 68.3161 54.7869 67.9561C55.0429 67.5881 55.1709 67.0921 55.1709 66.4681C55.1709 65.1241 54.6949 64.4521 53.7429 64.4521C52.7829 64.4521 52.3029 65.1241 52.3029 66.4681C52.3029 67.8201 52.7829 68.4961 53.7429 68.4961ZM57.4698 69.0001V68.2561H57.8058C58.7178 68.2561 59.1738 67.7841 59.1738 66.8401V61.6801L59.9778 61.2601V66.8521C59.9778 67.5321 59.7778 68.0681 59.3778 68.4601C59.0018 68.8201 58.5058 69.0001 57.8898 69.0001H57.4698ZM62.1386 69.0001V61.6801L62.9426 61.2601V69.0001H62.1386Z" fill="#090F1F"/>
<path d="M9.35547 58.0001H61.6427V58.9001H9.35547V58.0001ZM6.97656 72.0001H64.0226V72.9001H6.97656V72.0001Z" fill="#090F1F"/>
</svg>
