<svg width="16" height="21" viewBox="0 0 16 21" fill="none" xmlns="http://www.w3.org/2000/svg">
<path d="M8 9.92506L6.3 11.2251C6.2 11.3084 6.1 11.3126 6 11.2376C5.9 11.1626 5.86667 11.0667 5.9 10.9501L6.55 8.85006L4.8 7.45006C4.71667 7.36673 4.69167 7.27089 4.725 7.16256C4.75833 7.05423 4.83333 7.00006 4.95 7.00006H7.1L7.75 4.95006C7.78333 4.83339 7.86667 4.77506 8 4.77506C8.13333 4.77506 8.21667 4.83339 8.25 4.95006L8.9 7.00006H11.025C11.1417 7.00006 11.2208 7.05423 11.2625 7.16256C11.3042 7.27089 11.2833 7.36673 11.2 7.45006L9.425 8.85006L10.075 10.9501C10.1083 11.0667 10.075 11.1626 9.975 11.2376C9.875 11.3126 9.775 11.3084 9.675 11.2251L8 9.92506ZM8 19.0001L3.325 20.5501C2.99167 20.6667 2.6875 20.6251 2.4125 20.4251C2.1375 20.2251 2 19.9584 2 19.6251V13.2751C1.36667 12.5751 0.875 11.7751 0.525 10.8751C0.175 9.97506 0 9.01673 0 8.00006C0 5.76673 0.775 3.87506 2.325 2.32506C3.875 0.775061 5.76667 6.10352e-05 8 6.10352e-05C10.2333 6.10352e-05 12.125 0.775061 13.675 2.32506C15.225 3.87506 16 5.76673 16 8.00006C16 9.01673 15.825 9.97506 15.475 10.8751C15.125 11.7751 14.6333 12.5751 14 13.2751V19.6251C14 19.9584 13.8625 20.2251 13.5875 20.4251C13.3125 20.6251 13.0083 20.6667 12.675 20.5501L8 19.0001ZM8 14.0001C9.66667 14.0001 11.0833 13.4167 12.25 12.2501C13.4167 11.0834 14 9.66673 14 8.00006C14 6.33339 13.4167 4.91673 12.25 3.75006C11.0833 2.58339 9.66667 2.00006 8 2.00006C6.33333 2.00006 4.91667 2.58339 3.75 3.75006C2.58333 4.91673 2 6.33339 2 8.00006C2 9.66673 2.58333 11.0834 3.75 12.2501C4.91667 13.4167 6.33333 14.0001 8 14.0001ZM4 18.0251L8 17.0001L12 18.0251V14.9251C11.4167 15.2584 10.7875 15.5209 10.1125 15.7126C9.4375 15.9042 8.73333 16.0001 8 16.0001C7.26667 16.0001 6.5625 15.9042 5.8875 15.7126C5.2125 15.5209 4.58333 15.2584 4 14.9251V18.0251Z" fill="#1C1B1F"/>
</svg>
